<?xml version="1.0" encoding="UTF-8" standalone="no"?>
<!-- Created with Inkscape (http://www.inkscape.org/) -->

<svg
   version="1.1"
   width="283.28912"
   height="283.28833"
   id="svg2872"
   inkscape:version="1.3.2 (1:1.3.2+202311252150+091e20ef0f)"
   sodipodi:docname="octave-chartjs.svg"
   xmlns:inkscape="http://www.inkscape.org/namespaces/inkscape"
   xmlns:sodipodi="http://sodipodi.sourceforge.net/DTD/sodipodi-0.dtd"
   xmlns:xlink="http://www.w3.org/1999/xlink"
   xmlns="http://www.w3.org/2000/svg"
   xmlns:svg="http://www.w3.org/2000/svg"
   xmlns:rdf="http://www.w3.org/1999/02/22-rdf-syntax-ns#"
   xmlns:cc="http://creativecommons.org/ns#"
   xmlns:dc="http://purl.org/dc/elements/1.1/">
  <metadata
     id="metadata2942">
    <rdf:RDF>
      <cc:Work
         rdf:about="">
        <dc:format>image/svg+xml</dc:format>
        <dc:type
           rdf:resource="http://purl.org/dc/dcmitype/StillImage" />
      </cc:Work>
    </rdf:RDF>
  </metadata>
  <sodipodi:namedview
     pagecolor="#ffffff"
     bordercolor="#666666"
     borderopacity="1"
     objecttolerance="10"
     gridtolerance="10"
     guidetolerance="10"
     inkscape:pageopacity="0"
     inkscape:pageshadow="2"
     inkscape:window-width="2488"
     inkscape:window-height="1376"
     id="namedview2940"
     showgrid="false"
     inkscape:zoom="2.3900548"
     inkscape:cx="140.37335"
     inkscape:cy="147.27696"
     inkscape:window-x="72"
     inkscape:window-y="27"
     inkscape:window-maximized="1"
     inkscape:current-layer="svg2872"
     inkscape:showpageshadow="2"
     inkscape:pagecheckerboard="0"
     inkscape:deskcolor="#d1d1d1" />
  <defs
     id="defs2874">
    <radialGradient
       cx="182.9837"
       cy="395.04871"
       r="148.95309"
       fx="182.9837"
       fy="395.04871"
       id="radialGradient3033"
       xlink:href="#linearGradient3755"
       gradientUnits="userSpaceOnUse"
       gradientTransform="matrix(0.22914334,-0.24901479,0.7643572,0.83064268,-272.85337,-159.69482)" />
    <linearGradient
       id="linearGradient3755">
      <stop
         id="stop3757"
         style="stop-color:#008cbe;stop-opacity:1"
         offset="0" />
      <stop
         id="stop3759"
         style="stop-color:#b2ffff;stop-opacity:1"
         offset="1" />
    </linearGradient>
  </defs>
  <g
     id="layer1"
     transform="translate(-233.35544,-390.71802)">
    <g
       transform="matrix(8.4519723,0,0,8.4519723,-278.45012,-403.82975)"
       id="g3025">
      <path
         d="m 66.432103,97.488679 c -5.19584,5.646431 -3.93661,16.169031 2.81107,23.501871 6.74768,7.33285 16.42898,8.69955 21.62483,3.05312 5.19585,-5.64643 3.9402,-16.16946 -2.80749,-23.5023 -6.74768,-7.332861 -16.43256,-8.699131 -21.62841,-3.052691 z m 4.71149,2.34553 c 4.08256,-4.43659 11.589,-3.47152 16.76741,2.155961 5.17842,5.6275 6.06647,13.78491 1.98391,18.2215 -4.08256,4.43658 -11.59097,3.47369 -16.76939,-2.15381 -5.17842,-5.6275 -6.06449,-13.78704 -1.98193,-18.223651 z"
         id="path5874"
         style="fill:url(#radialGradient3033);fill-opacity:1;stroke:none" />
      <rect
         width="4.349854"
         height="4.349854"
         rx="0.76958966"
         ry="0.76958966"
         x="85.381561"
         y="99.493881"
         id="rect5876"
         style="fill:#ff7f2a;fill-opacity:1;fill-rule:nonzero;stroke:#d45500;stroke-width:0.74403799;stroke-miterlimit:4;stroke-dasharray:none" />
      <rect
         width="10.245436"
         height="10.245436"
         rx="1.8126545"
         ry="1.8126545"
         x="60.92659"
         y="105.2245"
         id="rect5878"
         style="fill:#ff7f2a;fill-opacity:1;fill-rule:nonzero;stroke:#d45500;stroke-width:0.74403799;stroke-miterlimit:4;stroke-dasharray:none" />
      <rect
         width="6.1897531"
         height="6.1897531"
         rx="1.0951102"
         ry="1.0951102"
         x="87.404739"
         y="118.63705"
         id="rect5880"
         style="fill:#ff7f2a;fill-opacity:1;fill-rule:nonzero;stroke:#d45500;stroke-width:0.74403799;stroke-miterlimit:4;stroke-dasharray:none" />
    </g>
  </g>
  <path
     fill="#36a2eb"
     d="m 238.50271,151.18181 c -22.368,0.439 -17.709,14.598 -33.473,18.18 -16.014,3.638 -18.542,-39.111 -34.552,-39.111 -16.012,0 -19.559,41.525 -39.608,70.034 l -0.571,0.808 42.985,24.813 65.22,-37.65 v -37.074 z"
     id="path9"
     style="fill:#36b8eb;fill-opacity:1" />
  <path
     fill="#ffce56"
     d="m 238.50271,149.89281 c -7.488,-9.61 -12.567,-20.658 -23.494,-20.658 -19.338,0 -14.249,31.545 -35.62,31.545 -21.374,0 -23.62,-33.931 -47.833,-2.035 -7.715,10.163 -13.925,21.494 -18.802,32.218 l 60.528,34.942 65.22,-37.65 v -38.362 z"
     id="path10"
     style="fill:#ff7f2a;fill-opacity:1" />
  <path
     opacity="0.8"
     fill="#fe6184"
     d="m 108.06171,162.95981 c 7.338,-20.32 10.504,-36.778 24.513,-36.778 21.37,0 26.459,60.038 44.778,53.93 18.318,-6.105 16.283,-38.668 44.779,-38.668 5.423,0 10.962,3.323 16.371,8.699 v 38.112 l -65.22,37.65 -65.222,-37.65 v -25.295 z"
     id="path11"
     style="fill:#d45500;fill-opacity:1" />
  <path
     fill="#e7e9ed"
     d="m 173.23171,230.62581 -69.291,-40 v -80 l 69.291,-39.999996 69.292,39.999996 v 80 z m -61.15,-44.699 61.15,35.3 61.151,-35.3 v -70.601 l -61.151,-35.299996 -61.15,35.299996 z"
     id="path12"
     style="fill:#bbbfce;fill-opacity:1" />
</svg>
